P2
2 2
255
 104 103
 104 103
