P2
3 3
255
21 21 1 
21 1 21 
1 21 1 
